<svg xmlns="http://www.w3.org/2000/svg" viewBox="0 0 64 64" width="64" height="64">
  <rect width="64" height="64" rx="14" fill="#b22222"/>
  <g fill="#1a1a1a">
    <rect x="12" y="10" width="10" height="10"/>
    <rect x="22" y="10" width="10" height="10" fill="#ffd84d"/>
    <rect x="32" y="10" width="10" height="10"/>
    <rect x="42" y="10" width="10" height="10" fill="#ffd84d"/>
    <rect x="12" y="20" width="10" height="10" fill="#ffd84d"/>
    <rect x="22" y="20" width="10" height="10"/>
    <rect x="32" y="20" width="10" height="10" fill="#ffd84d"/>
    <rect x="42" y="20" width="10" height="10"/>
  </g>
  <g transform="translate(8,30)">
    <path d="M6 6 Q9 2 14 2 L30 2 Q35 2 38 6 L42 12 L6 12 Z" fill="#fff" stroke="#1a1a1a" stroke-width="1.5"/>
    <circle cx="14" cy="14" r="4" fill="#1a1a1a"/>
    <circle cx="14" cy="14" r="1.6" fill="#9aa0a6"/>
    <circle cx="34" cy="14" r="4" fill="#1a1a1a"/>
    <circle cx="34" cy="14" r="1.6" fill="#9aa0a6"/>
  </g>
</svg>